<svg width="108" height="108" viewBox="0 0 108 108" fill="none" xmlns="http://www.w3.org/2000/svg">
<g clip-path="url(#clip0_6_10)">
<path d="M54 63.4833C67.7351 63.4833 78.8696 59.2578 78.8696 54.0454C78.8696 48.833 67.7351 44.6075 54 44.6075C40.2649 44.6075 29.1305 48.833 29.1305 54.0454C29.1305 59.2578 40.2649 63.4833 54 63.4833Z" stroke="white" stroke-width="1.5"/>
<path d="M45.7765 58.7644C52.6441 70.587 61.8931 78.0583 66.4348 75.4521C70.9765 72.8459 69.091 61.1491 62.2235 49.3264C55.356 37.5038 46.1069 30.0325 41.5652 32.6387C37.0235 35.2449 38.909 46.9418 45.7765 58.7644Z" stroke="white" stroke-width="1.5"/>
<path d="M45.7765 49.3265C38.909 61.1491 37.0235 72.8459 41.5652 75.4521C46.1069 78.0583 55.356 70.587 62.2235 58.7644C69.091 46.9418 70.9765 35.2449 66.4348 32.6387C61.8931 30.0325 52.6441 37.5039 45.7765 49.3265Z" stroke="white" stroke-width="1.5"/>
<path d="M51.6977 47.7778C51.4364 47.766 51.1576 47.8568 50.9239 48.0207C50.4477 48.2414 50.1364 48.7188 50.1364 49.2487V58.8701C50.1364 59.4263 50.461 59.8751 50.8695 60.125C50.8784 60.1303 50.8878 60.1349 50.8974 60.1388C50.9252 60.152 50.9599 60.1575 50.9926 60.1658C51.1441 60.2224 51.3562 60.3141 51.6307 60.3141C51.8977 60.3141 52.1813 60.2582 52.4589 60.0848L60.2113 55.3078C60.6624 55.032 60.8904 54.5378 60.8904 54.0529C60.8904 53.5861 60.6777 53.1258 60.2662 52.8384L60.2384 52.8114C60.23 52.8016 60.2207 52.7926 60.2106 52.7845L52.4582 47.994C52.4536 47.9939 52.4489 47.9939 52.4443 47.994C52.4373 47.9897 52.4235 47.9844 52.4165 47.9802C52.2121 47.8786 51.9654 47.7897 51.697 47.7778L51.6977 47.7778ZM52.3769 50.5981L57.957 54.0526L52.3769 57.4801V50.5981Z" fill="white"/>
</g>
<defs>
<clipPath id="clip0_6_10">
<rect width="52" height="46.0909" fill="white" transform="translate(28 31)"/>
</clipPath>
</defs>
</svg>
