<?xml version="1.0" encoding="UTF-8"?>
<!-- Created with Inkscape (http://www.inkscape.org/) -->
<svg width="188.98" height="32.573" version="1.1" viewBox="0 0 50 8.6184" xmlns="http://www.w3.org/2000/svg" xmlns:cc="http://creativecommons.org/ns#" xmlns:dc="http://purl.org/dc/elements/1.1/" xmlns:rdf="http://www.w3.org/1999/02/22-rdf-syntax-ns#"><metadata><rdf:RDF><cc:Work rdf:about=""><dc:format>image/svg+xml</dc:format><dc:type rdf:resource="http://purl.org/dc/dcmitype/StillImage"/><dc:title/></cc:Work></rdf:RDF></metadata><g transform="translate(-114.37 -87.649)"><g stroke="#27262b"><g transform="matrix(.42018 0 0 .42018 119.2 91.959)" stroke="#27262b"><g fill="none" stroke="#27262b"><ellipse rx="11" ry="4.2"/><ellipse transform="rotate(60)" rx="11" ry="4.2"/><ellipse transform="rotate(120)" rx="11" ry="4.2"/></g></g><path transform="matrix(1.2919 0 0 1.2919 -32.437 -28.936)" d="m117.04 92.672c-0.0376-0.0017-0.0777 0.01144-0.11133 0.03516-0.0685 0.03195-0.11328 0.10104-0.11328 0.17774v1.3926c0 0.08051 0.0467 0.14547 0.10547 0.18164a0.029042 0.029042 0 0 0 4e-3 2e-3c4e-3 0.0019 9e-3 0.0027 0.0137 0.0039 0.0218 0.0082 0.0523 0.02148 0.0918 0.02148 0.0384 0 0.0792-0.0081 0.11914-0.0332l1.1152-0.69141c0.0649-0.03993 0.0977-0.11145 0.0977-0.18164 0-0.06756-0.0306-0.13418-0.0898-0.17578l-4e-3 -0.0039a0.029042 0.029042 0 0 0-2e-3 -2e-3 0.029042 0.029042 0 0 0-2e-3 -2e-3l-1.1152-0.69336a0.029042 0.029042 0 0 0-2e-3 0c-1e-3 -6.24e-4 -3e-3 -0.0014-4e-3 -2e-3 -0.0294-0.01471-0.0649-0.02758-0.10351-0.0293zm0.0977 0.4082 0.80274 0.5-0.80274 0.49609z" fill="#27262b" stroke-width="0" style="paint-order:normal"/></g><g transform="matrix(1.5881 0 0 1.5881 -67.257 -56.598)" fill="#27262b" font-family="Jost" font-size="10.583px" letter-spacing="0px" stroke-width=".26458" word-spacing="0px"><text x="120.84125" y="93.05822" style="line-height:1.25" xml:space="preserve"><tspan x="120.84125" y="93.05822" fill="#27262b" font-family="Jost" font-size="2.1167px" font-weight="bold" stroke-width=".26458" style="line-height:0%">REACT-NATIVE</tspan></text><text x="121" y="95.541626" style="line-height:1.25" xml:space="preserve"><tspan x="121" y="95.541626" fill="#27262b" font-family="Jost" font-size="3.175px" font-weight="900" stroke-width=".26458">TRACK-PLAYER</tspan></text></g></g></svg>
