<?xml version="1.0" encoding="UTF-8"?>
<svg width="188.98" height="32.573" version="1.1" viewBox="0 0 50 8.6184" xmlns="http://www.w3.org/2000/svg" xmlns:cc="http://creativecommons.org/ns#" xmlns:dc="http://purl.org/dc/elements/1.1/" xmlns:rdf="http://www.w3.org/1999/02/22-rdf-syntax-ns#"><metadata><rdf:RDF><cc:Work rdf:about=""><dc:format>image/svg+xml</dc:format><dc:type rdf:resource="http://purl.org/dc/dcmitype/StillImage"/><dc:title/></cc:Work></rdf:RDF></metadata><g transform="translate(-114.37 -87.649)"><g stroke="#27262b"><g transform="matrix(.42018 0 0 .42018 119.2 91.959)" stroke="#27262b"><g fill="none" stroke="#27262b"><ellipse rx="11" ry="4.2"/><ellipse transform="rotate(60)" rx="11" ry="4.2"/><ellipse transform="rotate(120)" rx="11" ry="4.2"/></g></g><path transform="matrix(1.2919 0 0 1.2919 -32.437 -28.936)" d="m117.04 92.672c-0.0376-0.0017-0.0777 0.01144-0.11133 0.03516-0.0685 0.03195-0.11328 0.10104-0.11328 0.17774v1.3926c0 0.08051 0.0467 0.14547 0.10547 0.18164a0.029042 0.029042 0 0 0 4e-3 2e-3c4e-3 0.0019 9e-3 0.0027 0.0137 0.0039 0.0218 0.0082 0.0523 0.02148 0.0918 0.02148 0.0384 0 0.0792-0.0081 0.11914-0.0332l1.1152-0.69141c0.0649-0.03993 0.0977-0.11145 0.0977-0.18164 0-0.06756-0.0306-0.13418-0.0898-0.17578l-4e-3 -0.0039a0.029042 0.029042 0 0 0-2e-3 -2e-3 0.029042 0.029042 0 0 0-2e-3 -2e-3l-1.1152-0.69336a0.029042 0.029042 0 0 0-2e-3 0c-1e-3 -6.24e-4 -3e-3 -0.0014-4e-3 -2e-3 -0.0294-0.01471-0.0649-0.02758-0.10351-0.0293zm0.0977 0.4082 0.80274 0.5-0.80274 0.49609z" fill="#27262b" stroke-width="0" style="paint-order:normal"/></g><g transform="matrix(1.5881 0 0 1.5881 -67.257 -56.598)" fill="#27262b" font-family="Jost" font-size="10.583px" letter-spacing="0px" stroke-width=".26458" word-spacing="0px"><g aria-label="REACT-NATIVE"><path d="m121.37 92.387 0.41487 0.67099h0.42122l-0.46355-0.67099zm-0.36831-0.8107v1.4817h0.35561v-1.4817zm0.22225 0.3048h0.28999q0.072 0 0.12489 0.02328 0.0529 0.02328 0.0783 0.06562 0.0275 0.04233 0.0275 0.10372 0 0.06139-0.0275 0.10584-0.0254 0.04233-0.0783 0.06562-0.0529 0.02117-0.12489 0.02117h-0.28999v0.28152h0.31539q0.1905 0 0.31751-0.06138 0.12912-0.0635 0.19473-0.17357 0.0656-0.11007 0.0656-0.25189 0-0.14394-0.0656-0.25189-0.0656-0.11007-0.19473-0.17145-0.12701-0.06138-0.31751-0.06138h-0.31539z"/><path d="m122.6 93.058h0.74719v-0.29422h-0.74719zm0-1.1875h0.74719v-0.29422h-0.74719zm0 0.55458h0.70486v-0.2921h-0.70486zm-0.23496-0.8488v1.4817h0.34291v-1.4817z"/><path d="m123.88 92.772h0.78318l-0.0254-0.27305h-0.73449zm0.38947-0.64983 0.20744 0.47626-0.0148 0.09525 0.17569 0.36407h0.40852l-0.77683-1.5748-0.78106 1.5748h0.40429l0.18204-0.37677-0.0148-0.08255z"/><path d="m125.44 92.317q0-0.1016 0.0339-0.17992 0.036-0.08043 0.0974-0.13758 0.0614-0.05715 0.14182-0.08679 0.0804-0.02963 0.17146-0.02963 0.10583 0 0.18627 0.02752 0.0804 0.02752 0.14181 0.07197 0.0635 0.04445 0.11219 0.09737v-0.38947q-0.0889-0.06985-0.19474-0.10795-0.10372-0.04022-0.2667-0.04022-0.17992 0-0.32809 0.05715-0.14817 0.05503-0.25824 0.15664-0.11007 0.1016-0.16933 0.24554-0.0571 0.14182-0.0571 0.31539t0.0571 0.3175q0.0593 0.14182 0.16933 0.24342 0.11007 0.09949 0.25824 0.15664 0.14817 0.05503 0.32809 0.05503 0.16298 0 0.2667-0.04022 0.10584-0.04022 0.19474-0.10584v-0.38947q-0.0487 0.05292-0.11219 0.09737-0.0614 0.04445-0.14181 0.07197-0.0804 0.02752-0.18627 0.02752-0.091 0-0.17146-0.02963-0.0804-0.02963-0.14182-0.08679-0.0614-0.05715-0.0974-0.13547-0.0339-0.08043-0.0339-0.18204z"/><path d="m126.41 91.898h0.40429v1.16h0.35984v-1.16h0.4064v-0.32174h-1.1705z"/><path d="m127.59 92.696h0.45086v-0.2794h-0.45086z"/><path d="m129.23 91.577v0.82975l-1.0202-0.90383v1.5558h0.34291v-0.82975l1.0245 0.90383v-1.5558z"/><path d="m130.13 92.772h0.78318l-0.0254-0.27305h-0.7345zm0.38947-0.64983 0.20744 0.47626-0.0148 0.09525 0.17569 0.36407h0.40852l-0.77683-1.5748-0.78106 1.5748h0.40429l0.18203-0.37677-0.0148-0.08255z"/><path d="m131.15 91.898h0.40429v1.16h0.35984v-1.16h0.40641v-0.32174h-1.1705z"/><path d="m132.48 91.577v1.4817h0.36196v-1.4817z"/><path d="m133.79 92.459-0.36196-0.88266h-0.41911l0.78107 1.5748 0.77682-1.5748h-0.4191z"/><path d="m134.95 93.058h0.7472v-0.29422h-0.7472zm0-1.1875h0.7472v-0.29422h-0.7472zm0 0.55458h0.70486v-0.2921h-0.70486zm-0.23495-0.8488v1.4817h0.3429v-1.4817z"/></g><g aria-label="TRACK-PLAYER"><path d="m121 93.938h0.635v1.6034h0.6985v-1.6034h0.635v-0.61912h-1.9685z"/><path d="m123.84 94.589 0.53975 0.9525h0.80962l-0.635-0.9525zm-0.65088-1.27v2.2225h0.6985v-2.2225zm0.45085 0.58738h0.42228q0.0889 0 0.14605 0.0254 0.0571 0.02223 0.0857 0.06985 0.0318 0.04445 0.0318 0.11112 0 0.0635-0.0318 0.11112-0.0286 0.04762-0.0857 0.07303-0.0572 0.02222-0.14605 0.02222h-0.42228v0.52388h0.48578q0.32702 0 0.53022-0.09842 0.20638-0.09843 0.30163-0.26988 0.0984-0.17462 0.0984-0.3937 0-0.22225-0.0984-0.3937-0.0953-0.17145-0.30163-0.26988-0.2032-0.09843-0.53022-0.09843h-0.48578z"/><path d="m125.84 95.256h1.1748v-0.50165h-1.1748zm0.58102-0.9271 0.27305 0.61278-0.0476 0.18098 0.23495 0.4191h0.79375l-1.2541-2.3812-1.2541 2.3812h0.79375l0.2413-0.44132-0.054-0.15875z"/><path d="m128.43 94.43q0-0.13018 0.0444-0.22542 0.0445-0.09842 0.12065-0.16192 0.0794-0.0635 0.18098-0.09525 0.10477-0.03493 0.22225-0.03493 0.15875 0 0.27305 0.04127 0.1143 0.0381 0.20002 0.1016 0.0889 0.0635 0.15875 0.13018v-0.71755q-0.13017-0.09207-0.28575-0.1524-0.1524-0.06032-0.39687-0.06032-0.28893 0-0.52705 0.08255-0.23813 0.08255-0.4064 0.23812-0.16828 0.15558-0.26035 0.37148-0.0921 0.2159-0.0921 0.4826t0.0921 0.4826 0.26035 0.37148q0.16827 0.15558 0.4064 0.23812 0.23812 0.08255 0.52705 0.08255 0.24447 0 0.39687-0.0635 0.15558-0.06032 0.28575-0.14922v-0.71755q-0.0699 0.06667-0.15875 0.13018-0.0857 0.06033-0.20002 0.1016-0.1143 0.04127-0.27305 0.04127-0.11748 0-0.22225-0.03175-0.1016-0.03493-0.18098-0.09843-0.0762-0.0635-0.12065-0.16192-0.0444-0.09842-0.0444-0.22542z"/><path d="m130.05 93.319v2.2225h0.73025v-2.2225zm1.4129 0-0.88265 1.0636 0.89853 1.1589h0.84455l-0.9144-1.1811 0.86677-1.0414z"/><path d="m132.32 95.05h0.6985v-0.52388h-0.6985z"/><path d="m133.26 93.319v2.2225h0.6985v-2.2225zm0.45085 0.55562h0.42228q0.0889 0 0.14605 0.0254 0.0572 0.02223 0.0857 0.06985 0.0318 0.04445 0.0318 0.11112 0 0.0635-0.0318 0.11112-0.0286 0.04762-0.0857 0.07303-0.0571 0.02223-0.14605 0.02223h-0.42228v0.55562h0.42228q0.32702 0 0.53022-0.09207 0.20638-0.09208 0.30163-0.26352 0.0984-0.17145 0.0984-0.4064 0-0.23812-0.0984-0.4064-0.0952-0.17145-0.30163-0.26352-0.2032-0.09208-0.53022-0.09208h-0.42228z"/><path d="m135.38 93.319v2.2225h1.6034v-0.58738h-0.90487v-1.6351z"/><path d="m137.73 95.256h1.1748v-0.50165h-1.1748zm0.58103-0.9271 0.27305 0.61278-0.0476 0.18098 0.23495 0.4191h0.79375l-1.2541-2.3812-1.2541 2.3812h0.79375l0.2413-0.44132-0.054-0.15875z"/><path d="m140.82 93.319-0.34925 0.71755-0.34925-0.71755h-0.80962l0.80327 1.3557v0.86678h0.71438v-0.87312l0.8001-1.3494z"/><path d="m142.32 95.542h1.1208v-0.55562h-1.1208zm0-1.6669h1.1208v-0.55562h-1.1208zm0 0.79375h1.0573v-0.53975h-1.0573zm-0.4826-1.3494v2.2225h0.66675v-2.2225z"/><path d="m144.5 94.589 0.53975 0.9525h0.80963l-0.635-0.9525zm-0.65087-1.27v2.2225h0.6985v-2.2225zm0.45085 0.58738h0.42227q0.0889 0 0.14605 0.0254 0.0572 0.02223 0.0857 0.06985 0.0317 0.04445 0.0317 0.11112 0 0.0635-0.0317 0.11112-0.0286 0.04762-0.0857 0.07303-0.0571 0.02222-0.14605 0.02222h-0.42227v0.52388h0.48577q0.32703 0 0.53023-0.09842 0.20637-0.09843 0.30162-0.26988 0.0984-0.17462 0.0984-0.3937 0-0.22225-0.0984-0.3937-0.0952-0.17145-0.30162-0.26988-0.2032-0.09843-0.53023-0.09843h-0.48577z"/></g></g></g></svg>
